<svg xmlns="http://www.w3.org/2000/svg" xmlns:xlink="http://www.w3.org/1999/xlink" width="500" zoomAndPan="magnify" viewBox="0 0 375 374.999991" height="500" preserveAspectRatio="xMidYMid meet" version="1.0"><path fill="#ff914d" d="M 341.871094 0 L 181.109375 0 L 272.925781 190.359375 C 274.101562 192.714844 273.933594 195.402344 272.589844 197.589844 C 271.078125 199.945312 268.722656 201.289062 266.03125 201.289062 L 257.625 201.289062 C 254.933594 201.289062 252.410156 202.632812 251.066406 205.15625 C 249.71875 207.511719 249.71875 210.371094 251.234375 212.722656 L 351.792969 373.65625 C 365.246094 369.449219 375.167969 356.671875 375.167969 341.871094 L 375.167969 33.464844 C 375.167969 14.964844 360.203125 0 341.871094 0 Z M 341.871094 0 " fill-opacity="1" fill-rule="evenodd"/><path fill="#ff3131" d="M 351.792969 373.65625 L 104.933594 148.992188 C 102.578125 146.804688 101.738281 143.609375 102.914062 140.582031 C 104.09375 137.554688 106.78125 135.707031 109.976562 135.707031 L 140.414062 135.539062 C 143.609375 135.539062 146.300781 133.6875 147.308594 130.660156 C 148.488281 127.632812 147.8125 124.4375 145.292969 122.253906 L 15.472656 5.382812 C 6.222656 11.265625 0 21.691406 0 33.464844 L 0 341.871094 C 0 360.203125 14.964844 375.167969 33.464844 375.167969 L 341.871094 375.167969 C 345.234375 375.167969 348.597656 374.664062 351.792969 373.65625 Z M 351.792969 373.65625 " fill-opacity="1" fill-rule="evenodd"/></svg>