<svg xmlns="http://www.w3.org/2000/svg" xmlns:xlink="http://www.w3.org/1999/xlink" width="500" zoomAndPan="magnify" viewBox="0 0 375 374.999991" height="500" preserveAspectRatio="xMidYMid meet" version="1.0"><defs><g/><clipPath id="36f976a0ee"><path d="M 93 146.394531 L 135.601562 146.394531 L 135.601562 227.390625 L 93 227.390625 Z M 93 146.394531 " clip-rule="nonzero"/></clipPath><clipPath id="b31ff5cf20"><path d="M 54.601562 147 L 131 147 L 131 227.390625 L 54.601562 227.390625 Z M 54.601562 147 " clip-rule="nonzero"/></clipPath><clipPath id="46c3294f69"><rect x="0" width="165" y="0" height="56"/></clipPath></defs><g clip-path="url(#36f976a0ee)"><path fill="#ff914d" d="M 128.5 146.394531 L 93.75 146.394531 L 113.597656 187.539062 C 113.851562 188.046875 113.816406 188.628906 113.523438 189.101562 C 113.195312 189.613281 112.6875 189.902344 112.105469 189.902344 L 110.289062 189.902344 C 109.707031 189.902344 109.160156 190.191406 108.871094 190.738281 C 108.582031 191.246094 108.582031 191.867188 108.90625 192.375 L 130.644531 227.160156 C 133.550781 226.25 135.695312 223.488281 135.695312 220.289062 L 135.695312 153.625 C 135.695312 149.628906 132.460938 146.394531 128.5 146.394531 Z M 128.5 146.394531 " fill-opacity="1" fill-rule="evenodd"/></g><g clip-path="url(#b31ff5cf20)"><path fill="#ff3131" d="M 130.644531 227.160156 L 77.285156 178.597656 C 76.773438 178.125 76.59375 177.433594 76.847656 176.78125 C 77.101562 176.125 77.683594 175.726562 78.375 175.726562 L 84.953125 175.691406 C 85.644531 175.691406 86.226562 175.289062 86.445312 174.636719 C 86.699219 173.980469 86.550781 173.289062 86.007812 172.820312 L 57.945312 147.554688 C 55.945312 148.828125 54.601562 151.082031 54.601562 153.625 L 54.601562 220.289062 C 54.601562 224.253906 57.835938 227.488281 61.835938 227.488281 L 128.5 227.488281 C 129.226562 227.488281 129.953125 227.378906 130.644531 227.160156 Z M 130.644531 227.160156 " fill-opacity="1" fill-rule="evenodd"/></g><g fill="#242424" fill-opacity="1"><g transform="translate(151.754335, 182.000935)"><g><path d="M 10.1875 0 L 0.84375 -32.640625 L 8.375 -32.640625 L 13.78125 -9.953125 L 14.0625 -9.953125 L 20.015625 -32.640625 L 26.46875 -32.640625 L 32.40625 -9.90625 L 32.703125 -9.90625 L 38.109375 -32.640625 L 45.640625 -32.640625 L 36.296875 0 L 29.578125 0 L 23.359375 -21.34375 L 23.109375 -21.34375 L 16.90625 0 Z M 10.1875 0 "/></g></g></g><g fill="#242424" fill-opacity="1"><g transform="translate(197.112612, 182.000935)"><g><path d="M 2.84375 0 L 2.84375 -32.640625 L 9.734375 -32.640625 L 9.734375 -5.6875 L 23.734375 -5.6875 L 23.734375 0 Z M 2.84375 0 "/></g></g></g><g fill="#242424" fill-opacity="1"><g transform="translate(221.453564, 182.000935)"><g><path d="M 2.84375 0 L 2.84375 -32.640625 L 15.71875 -32.640625 C 19.425781 -32.640625 22.300781 -31.671875 24.34375 -29.734375 C 26.382812 -27.796875 27.40625 -25.207031 27.40625 -21.96875 C 27.40625 -19.738281 26.90625 -17.832031 25.90625 -16.25 C 24.914062 -14.664062 23.492188 -13.476562 21.640625 -12.6875 L 28.578125 0 L 20.953125 0 L 14.765625 -11.5625 L 9.734375 -11.5625 L 9.734375 0 Z M 9.734375 -17.109375 L 14.421875 -17.109375 C 18.335938 -17.109375 20.296875 -18.726562 20.296875 -21.96875 C 20.296875 -25.320312 18.328125 -27 14.390625 -27 L 9.734375 -27 Z M 9.734375 -17.109375 "/></g></g></g><g transform="matrix(1, 0, 0, 1, 150, 180)"><g clip-path="url(#46c3294f69)"><g fill="#9493a2" fill-opacity="1"><g transform="translate(1.173027, 44.4345)"><g><path d="M 3.953125 0 L 3.953125 -32.640625 L 7.90625 -32.640625 L 7.90625 -3.5 L 23.078125 -3.5 L 23.078125 0 Z M 3.953125 0 "/></g></g></g><g fill="#9493a2" fill-opacity="1"><g transform="translate(25.061195, 44.4345)"><g><path d="M 10.640625 0.578125 C 9.085938 0.578125 7.679688 0.285156 6.421875 -0.296875 C 5.160156 -0.890625 4.15625 -1.75 3.40625 -2.875 C 2.664062 -4 2.296875 -5.359375 2.296875 -6.953125 C 2.296875 -8.347656 2.570312 -9.484375 3.125 -10.359375 C 3.675781 -11.242188 4.410156 -11.929688 5.328125 -12.421875 C 6.253906 -12.921875 7.28125 -13.296875 8.40625 -13.546875 C 9.53125 -13.796875 10.660156 -14 11.796875 -14.15625 C 13.273438 -14.34375 14.476562 -14.484375 15.40625 -14.578125 C 16.34375 -14.679688 17.023438 -14.851562 17.453125 -15.09375 C 17.890625 -15.34375 18.109375 -15.769531 18.109375 -16.375 L 18.109375 -16.515625 C 18.109375 -18.085938 17.675781 -19.304688 16.8125 -20.171875 C 15.957031 -21.046875 14.664062 -21.484375 12.9375 -21.484375 C 11.144531 -21.484375 9.738281 -21.085938 8.71875 -20.296875 C 7.695312 -19.515625 6.976562 -18.675781 6.5625 -17.78125 L 3 -19.0625 C 3.632812 -20.550781 4.484375 -21.710938 5.546875 -22.546875 C 6.617188 -23.378906 7.789062 -23.960938 9.0625 -24.296875 C 10.332031 -24.628906 11.582031 -24.796875 12.8125 -24.796875 C 13.59375 -24.796875 14.492188 -24.703125 15.515625 -24.515625 C 16.546875 -24.328125 17.539062 -23.945312 18.5 -23.375 C 19.46875 -22.800781 20.269531 -21.9375 20.90625 -20.78125 C 21.539062 -19.625 21.859375 -18.070312 21.859375 -16.125 L 21.859375 0 L 18.109375 0 L 18.109375 -3.3125 L 17.90625 -3.3125 C 17.65625 -2.78125 17.234375 -2.210938 16.640625 -1.609375 C 16.046875 -1.003906 15.253906 -0.488281 14.265625 -0.0625 C 13.273438 0.363281 12.066406 0.578125 10.640625 0.578125 Z M 11.21875 -2.796875 C 12.707031 -2.796875 13.960938 -3.085938 14.984375 -3.671875 C 16.015625 -4.265625 16.789062 -5.019531 17.3125 -5.9375 C 17.84375 -6.863281 18.109375 -7.835938 18.109375 -8.859375 L 18.109375 -12.296875 C 17.941406 -12.109375 17.585938 -11.9375 17.046875 -11.78125 C 16.515625 -11.625 15.898438 -11.488281 15.203125 -11.375 C 14.515625 -11.269531 13.84375 -11.175781 13.1875 -11.09375 C 12.53125 -11.019531 12 -10.957031 11.59375 -10.90625 C 10.625 -10.769531 9.710938 -10.5625 8.859375 -10.28125 C 8.015625 -10 7.335938 -9.578125 6.828125 -9.015625 C 6.316406 -8.460938 6.0625 -7.707031 6.0625 -6.75 C 6.0625 -5.445312 6.546875 -4.460938 7.515625 -3.796875 C 8.484375 -3.128906 9.71875 -2.796875 11.21875 -2.796875 Z M 11.21875 -2.796875 "/></g></g></g><g fill="#9493a2" fill-opacity="1"><g transform="translate(49.01309, 44.4345)"><g><path d="M 3.4375 9.171875 L 3.4375 -24.484375 L 7.078125 -24.484375 L 7.078125 -20.59375 L 7.515625 -20.59375 C 7.796875 -21.007812 8.179688 -21.550781 8.671875 -22.21875 C 9.171875 -22.882812 9.882812 -23.476562 10.8125 -24 C 11.738281 -24.53125 13 -24.796875 14.59375 -24.796875 C 16.65625 -24.796875 18.472656 -24.28125 20.046875 -23.25 C 21.617188 -22.21875 22.84375 -20.753906 23.71875 -18.859375 C 24.601562 -16.972656 25.046875 -14.742188 25.046875 -12.171875 C 25.046875 -9.578125 24.601562 -7.332031 23.71875 -5.4375 C 22.84375 -3.539062 21.625 -2.070312 20.0625 -1.03125 C 18.5 0 16.695312 0.515625 14.65625 0.515625 C 13.082031 0.515625 11.820312 0.253906 10.875 -0.265625 C 9.9375 -0.796875 9.210938 -1.398438 8.703125 -2.078125 C 8.191406 -2.753906 7.796875 -3.316406 7.515625 -3.765625 L 7.203125 -3.765625 L 7.203125 9.171875 Z M 7.140625 -12.234375 C 7.140625 -9.460938 7.738281 -7.207031 8.9375 -5.46875 C 10.144531 -3.738281 11.882812 -2.875 14.15625 -2.875 C 15.726562 -2.875 17.039062 -3.289062 18.09375 -4.125 C 19.15625 -4.957031 19.953125 -6.082031 20.484375 -7.5 C 21.023438 -8.914062 21.296875 -10.492188 21.296875 -12.234375 C 21.296875 -13.953125 21.03125 -15.503906 20.5 -16.890625 C 19.976562 -18.285156 19.1875 -19.390625 18.125 -20.203125 C 17.070312 -21.015625 15.75 -21.421875 14.15625 -21.421875 C 11.851562 -21.421875 10.109375 -20.570312 8.921875 -18.875 C 7.734375 -17.1875 7.140625 -14.972656 7.140625 -12.234375 Z M 7.140625 -12.234375 "/></g></g></g><g fill="#9493a2" fill-opacity="1"><g transform="translate(75.004146, 44.4345)"><g><path d="M 14.09375 -24.484375 L 14.09375 -21.296875 L 8.859375 -21.296875 L 8.859375 -7.015625 C 8.859375 -5.953125 9.015625 -5.15625 9.328125 -4.625 C 9.640625 -4.101562 10.039062 -3.753906 10.53125 -3.578125 C 11.03125 -3.398438 11.554688 -3.3125 12.109375 -3.3125 C 12.523438 -3.3125 12.863281 -3.332031 13.125 -3.375 C 13.394531 -3.425781 13.609375 -3.46875 13.765625 -3.5 L 14.53125 -0.125 C 14.28125 -0.03125 13.925781 0.0625 13.46875 0.15625 C 13.007812 0.257812 12.429688 0.3125 11.734375 0.3125 C 10.671875 0.3125 9.628906 0.0859375 8.609375 -0.359375 C 7.597656 -0.816406 6.757812 -1.515625 6.09375 -2.453125 C 5.425781 -3.390625 5.09375 -4.566406 5.09375 -5.984375 L 5.09375 -21.296875 L 1.40625 -21.296875 L 1.40625 -24.484375 L 5.09375 -24.484375 L 5.09375 -30.34375 L 8.859375 -30.34375 L 8.859375 -24.484375 Z M 14.09375 -24.484375 "/></g></g></g><g fill="#9493a2" fill-opacity="1"><g transform="translate(89.970989, 44.4345)"><g><path d="M 13.390625 0.515625 C 11.179688 0.515625 9.242188 -0.0078125 7.578125 -1.0625 C 5.910156 -2.113281 4.613281 -3.582031 3.6875 -5.46875 C 2.757812 -7.363281 2.296875 -9.578125 2.296875 -12.109375 C 2.296875 -14.660156 2.757812 -16.882812 3.6875 -18.78125 C 4.613281 -20.6875 5.910156 -22.164062 7.578125 -23.21875 C 9.242188 -24.269531 11.179688 -24.796875 13.390625 -24.796875 C 15.597656 -24.796875 17.53125 -24.269531 19.1875 -23.21875 C 20.851562 -22.164062 22.148438 -20.6875 23.078125 -18.78125 C 24.015625 -16.882812 24.484375 -14.660156 24.484375 -12.109375 C 24.484375 -9.578125 24.015625 -7.363281 23.078125 -5.46875 C 22.148438 -3.582031 20.851562 -2.113281 19.1875 -1.0625 C 17.53125 -0.0078125 15.597656 0.515625 13.390625 0.515625 Z M 13.390625 -2.875 C 15.066406 -2.875 16.445312 -3.300781 17.53125 -4.15625 C 18.613281 -5.019531 19.414062 -6.148438 19.9375 -7.546875 C 20.457031 -8.953125 20.71875 -10.472656 20.71875 -12.109375 C 20.71875 -13.742188 20.457031 -15.265625 19.9375 -16.671875 C 19.414062 -18.085938 18.613281 -19.234375 17.53125 -20.109375 C 16.445312 -20.984375 15.066406 -21.421875 13.390625 -21.421875 C 11.710938 -21.421875 10.332031 -20.984375 9.25 -20.109375 C 8.164062 -19.234375 7.363281 -18.085938 6.84375 -16.671875 C 6.320312 -15.265625 6.0625 -13.742188 6.0625 -12.109375 C 6.0625 -10.472656 6.320312 -8.953125 6.84375 -7.546875 C 7.363281 -6.148438 8.164062 -5.019531 9.25 -4.15625 C 10.332031 -3.300781 11.710938 -2.875 13.390625 -2.875 Z M 13.390625 -2.875 "/></g></g></g><g fill="#9493a2" fill-opacity="1"><g transform="translate(115.388527, 44.4345)"><g><path d="M 3.4375 9.171875 L 3.4375 -24.484375 L 7.078125 -24.484375 L 7.078125 -20.59375 L 7.515625 -20.59375 C 7.796875 -21.007812 8.179688 -21.550781 8.671875 -22.21875 C 9.171875 -22.882812 9.882812 -23.476562 10.8125 -24 C 11.738281 -24.53125 13 -24.796875 14.59375 -24.796875 C 16.65625 -24.796875 18.472656 -24.28125 20.046875 -23.25 C 21.617188 -22.21875 22.84375 -20.753906 23.71875 -18.859375 C 24.601562 -16.972656 25.046875 -14.742188 25.046875 -12.171875 C 25.046875 -9.578125 24.601562 -7.332031 23.71875 -5.4375 C 22.84375 -3.539062 21.625 -2.070312 20.0625 -1.03125 C 18.5 0 16.695312 0.515625 14.65625 0.515625 C 13.082031 0.515625 11.820312 0.253906 10.875 -0.265625 C 9.9375 -0.796875 9.210938 -1.398438 8.703125 -2.078125 C 8.191406 -2.753906 7.796875 -3.316406 7.515625 -3.765625 L 7.203125 -3.765625 L 7.203125 9.171875 Z M 7.140625 -12.234375 C 7.140625 -9.460938 7.738281 -7.207031 8.9375 -5.46875 C 10.144531 -3.738281 11.882812 -2.875 14.15625 -2.875 C 15.726562 -2.875 17.039062 -3.289062 18.09375 -4.125 C 19.15625 -4.957031 19.953125 -6.082031 20.484375 -7.5 C 21.023438 -8.914062 21.296875 -10.492188 21.296875 -12.234375 C 21.296875 -13.953125 21.03125 -15.503906 20.5 -16.890625 C 19.976562 -18.285156 19.1875 -19.390625 18.125 -20.203125 C 17.070312 -21.015625 15.75 -21.421875 14.15625 -21.421875 C 11.851562 -21.421875 10.109375 -20.570312 8.921875 -18.875 C 7.734375 -17.1875 7.140625 -14.972656 7.140625 -12.234375 Z M 7.140625 -12.234375 "/></g></g></g><g fill="#9493a2" fill-opacity="1"><g transform="translate(141.379583, 44.4345)"><g><path d="M 20.78125 -19 L 17.40625 -18.046875 C 17.070312 -18.890625 16.515625 -19.679688 15.734375 -20.421875 C 14.960938 -21.171875 13.753906 -21.546875 12.109375 -21.546875 C 10.609375 -21.546875 9.363281 -21.203125 8.375 -20.515625 C 7.382812 -19.828125 6.890625 -18.957031 6.890625 -17.90625 C 6.890625 -16.976562 7.226562 -16.242188 7.90625 -15.703125 C 8.582031 -15.160156 9.644531 -14.707031 11.09375 -14.34375 L 14.71875 -13.453125 C 19.050781 -12.390625 21.21875 -10.179688 21.21875 -6.828125 C 21.21875 -5.421875 20.816406 -4.164062 20.015625 -3.0625 C 19.210938 -1.957031 18.09375 -1.082031 16.65625 -0.4375 C 15.226562 0.195312 13.566406 0.515625 11.671875 0.515625 C 9.171875 0.515625 7.101562 -0.0234375 5.46875 -1.109375 C 3.832031 -2.191406 2.796875 -3.773438 2.359375 -5.859375 L 5.921875 -6.75 C 6.597656 -4.113281 8.488281 -2.796875 11.59375 -2.796875 C 13.351562 -2.796875 14.75 -3.171875 15.78125 -3.921875 C 16.820312 -4.671875 17.34375 -5.570312 17.34375 -6.625 C 17.34375 -8.363281 16.128906 -9.515625 13.703125 -10.078125 L 9.625 -11.03125 C 7.382812 -11.5625 5.738281 -12.382812 4.6875 -13.5 C 3.644531 -14.625 3.125 -16.03125 3.125 -17.71875 C 3.125 -19.101562 3.515625 -20.328125 4.296875 -21.390625 C 5.078125 -22.453125 6.144531 -23.285156 7.5 -23.890625 C 8.851562 -24.492188 10.390625 -24.796875 12.109375 -24.796875 C 14.535156 -24.796875 16.441406 -24.265625 17.828125 -23.203125 C 19.210938 -22.140625 20.195312 -20.738281 20.78125 -19 Z M 20.78125 -19 "/></g></g></g></g></g></svg>